<?xml version="1.0" standalone="no"?>
<!DOCTYPE svg PUBLIC "-//W3C//DTD SVG 20010904//EN"
 "http://www.w3.org/TR/2001/REC-SVG-20010904/DTD/svg10.dtd">
<svg version="1.0" xmlns="http://www.w3.org/2000/svg"
 width="320.000000pt" height="320.000000pt" viewBox="0 0 320.000000 320.000000"
 preserveAspectRatio="xMidYMid meet">
<metadata>
Created by potrace 1.14, written by Peter Selinger 2001-2017
</metadata>
<g transform="translate(0.000000,320.000000) scale(0.100000,-0.100000)"
fill="#000000" stroke="none">
<path d="M0 1600 l0 -1600 319 0 319 0 -19 60 c-10 33 -30 118 -44 188 -38
193 -30 175 -71 167 -33 -6 -39 -3 -89 47 -60 60 -67 80 -91 249 -14 101 -33
349 -27 349 2 0 9 -16 17 -35 9 -20 14 -63 14 -103 -1 -37 3 -76 9 -87 10 -16
12 -12 18 30 3 28 10 78 16 111 5 34 6 69 3 78 -12 32 -77 50 -87 24 -2 -8
-10 -2 -17 14 -18 38 -5 94 26 115 24 15 27 15 55 -6 16 -12 37 -20 47 -17 13
4 21 -5 34 -36 10 -23 21 -38 25 -35 4 4 8 62 10 129 1 66 5 124 9 127 11 11
35 -33 56 -104 34 -113 61 -166 117 -227 58 -63 97 -90 180 -124 31 -13 50
-24 44 -24 -21 0 -15 -19 14 -46 26 -24 33 -25 93 -20 60 6 96 13 160 32 32 9
85 58 112 104 12 19 57 85 100 147 43 61 89 136 103 165 13 29 33 64 44 78 17
21 23 23 47 15 21 -8 40 -33 80 -107 75 -140 215 -328 246 -328 5 0 6 5 2 12
-5 8 -2 9 10 5 10 -4 19 -7 22 -7 2 0 1 -6 -2 -14 -3 -7 3 -16 13 -19 10 -4
34 -12 53 -20 30 -11 67 -14 103 -8 5 0 5 6 2 11 -4 6 10 10 35 10 47 0 149
32 200 63 104 64 173 164 211 306 24 93 55 136 105 150 43 12 84 -24 84 -74 0
-21 8 -41 20 -53 10 -10 26 -35 35 -56 12 -29 20 -36 33 -31 57 23 72 24 93 2
29 -32 33 -61 12 -93 -10 -16 -16 -31 -14 -34 2 -3 15 -35 28 -73 28 -80 30
-123 16 -282 -9 -100 -16 -128 -39 -170 -54 -99 -113 -145 -185 -145 -47 0
-48 -1 -58 -37 -5 -21 -25 -101 -45 -178 -19 -77 -39 -152 -45 -167 l-11 -28
325 0 325 0 0 1600 0 1600 -241 0 c-157 0 -238 -3 -234 -10 3 -5 15 -10 26
-10 10 0 19 -7 19 -15 0 -9 9 -15 25 -15 14 0 25 -4 25 -10 0 -5 -7 -10 -15
-10 -8 0 -15 -4 -15 -9 0 -5 22 -12 49 -16 27 -4 58 -13 67 -20 16 -11 12 -12
-31 -8 -42 5 -48 3 -37 -8 13 -14 17 -15 46 -18 7 0 16 -10 19 -21 5 -19 2
-20 -29 -14 -22 4 -34 2 -34 -5 0 -6 8 -11 18 -11 26 0 33 -10 22 -31 -7 -12
-6 -20 2 -25 6 -4 8 -3 5 3 -4 6 1 14 10 17 23 9 120 -87 125 -125 5 -32 1
-31 -16 3 -14 26 -36 35 -36 14 0 -9 5 -16 11 -16 6 0 8 -7 5 -15 -4 -10 3
-20 19 -27 14 -6 25 -14 25 -17 0 -13 -16 -26 -35 -29 l-20 -2 20 12 c18 11
17 13 -20 19 -41 7 -57 3 -39 -9 6 -4 13 -15 17 -24 3 -10 14 -18 24 -18 12 0
14 -3 6 -8 -7 -4 -10 -17 -6 -30 3 -12 10 -19 16 -15 6 4 7 1 2 -7 -4 -7 -2
-16 6 -22 11 -8 10 -8 -4 -4 -29 9 -41 -4 -18 -21 20 -13 20 -15 5 -38 -15
-23 -47 -36 -42 -17 4 14 -13 82 -20 82 -9 0 -35 -29 -50 -56 -9 -14 -11 -15
-12 -4 0 10 -11 16 -31 17 -35 3 -51 13 -31 20 6 3 12 11 12 19 0 17 -5 17
-29 2 -16 -9 -26 -6 -61 19 -23 18 -37 34 -31 38 6 3 15 4 19 1 5 -3 9 8 10
24 0 16 6 39 13 52 24 45 20 66 -14 74 -18 4 -27 9 -20 11 7 2 9 11 6 20 -3 8
0 19 8 24 11 8 8 14 -16 34 -16 14 -38 25 -47 25 -11 0 -15 5 -12 15 4 9 0 15
-9 15 -9 0 -19 5 -23 12 -4 7 -3 8 4 4 16 -10 15 9 0 21 -18 13 -60 14 -52 1
4 -6 -1 -6 -14 1 -33 18 -37 13 -12 -14 l24 -25 -31 15 c-17 8 -33 24 -36 35
-4 14 -14 20 -34 20 -42 0 -61 -16 -29 -24 14 -3 26 -12 26 -18 0 -9 -3 -9
-12 0 -7 7 -24 12 -40 12 -25 0 -27 2 -18 26 7 16 7 23 0 19 -6 -3 -10 3 -10
14 0 23 -16 28 -23 9 -3 -8 -9 -1 -16 15 -6 15 -17 27 -25 27 -7 0 -17 7 -20
16 -4 10 -13 13 -26 9 -13 -4 -22 -1 -26 9 -5 12 -21 16 -71 16 -57 0 -64 -2
-53 -15 9 -11 9 -15 1 -15 -6 0 -14 7 -17 15 -5 11 -21 14 -65 13 -32 -1 -59
-5 -59 -9 0 -10 35 -30 47 -28 4 1 25 -5 45 -14 43 -20 52 -21 43 -7 -3 6 1 7
10 3 10 -3 12 -8 7 -12 -16 -10 80 -108 101 -103 10 2 30 -4 45 -14 15 -10 32
-18 38 -19 18 0 66 -55 49 -55 -34 0 -141 34 -153 49 -11 14 -12 13 -2 -6 12
-26 8 -28 -21 -13 -13 8 -25 7 -39 0 -17 -9 -18 -14 -8 -35 6 -14 17 -25 25
-25 7 0 13 -4 13 -10 0 -5 -9 -10 -20 -10 -11 0 -20 5 -20 11 0 6 -7 8 -16 5
-8 -3 -13 -2 -10 2 2 4 -9 17 -25 27 -16 11 -27 26 -24 33 2 7 -4 12 -15 12
-10 0 -22 5 -25 11 -4 6 -13 8 -21 5 -8 -3 -11 0 -8 8 3 8 20 17 37 20 28 6
30 8 14 17 -9 6 -23 7 -30 3 -6 -4 -5 1 4 10 14 16 19 15 64 -4 27 -11 55 -18
63 -15 24 9 -33 61 -83 76 -24 7 -42 16 -39 20 2 5 -4 13 -15 18 -27 15 -30
14 -24 -9 4 -15 0 -20 -15 -20 -12 0 -24 5 -27 10 -3 6 1 10 10 10 10 0 13 4
8 13 -4 6 -6 20 -5 30 3 18 -13 23 -23 7 -4 -6 -13 -7 -23 -1 -9 5 -156 9
-327 9 -221 0 -304 -3 -287 -11 12 -5 22 -14 22 -19 0 -13 -9 -10 -31 11 -18
17 -37 19 -144 20 -109 0 -125 -2 -140 -19 -10 -11 -22 -17 -27 -14 -5 3 -1
12 9 20 17 13 17 13 -4 14 -13 0 -23 -6 -23 -14 0 -8 -7 -17 -16 -20 -24 -9
-29 -7 -16 6 20 20 14 25 -32 26 l-44 2 11 -30 c16 -42 84 -69 132 -51 18 6
45 9 58 6 30 -8 44 10 20 24 -17 10 -17 10 0 11 10 0 20 -7 23 -15 7 -18 84
-21 102 -3 9 9 12 9 12 0 0 -7 8 -12 18 -12 13 0 14 -2 4 -9 -10 -6 -5 -11 17
-21 27 -11 29 -14 15 -27 -8 -9 -13 -21 -10 -28 5 -13 -18 -15 -30 -2 -4 4
-29 4 -55 1 -42 -6 -50 -4 -69 18 -20 24 -27 25 -129 26 -84 1 -118 6 -155 22
-53 22 -60 24 -52 11 3 -4 -17 -7 -45 -6 -27 1 -52 -2 -55 -7 -3 -4 -16 -8
-30 -8 -17 0 -27 -8 -34 -26 -11 -27 -3 -55 10 -35 5 9 11 7 21 -5 9 -11 9
-15 2 -10 -17 10 -48 -8 -48 -28 0 -9 -4 -16 -10 -17 -5 0 -15 -5 -21 -10 -20
-16 -11 23 9 44 29 29 16 42 -49 45 -45 1 -55 0 -41 -9 9 -5 21 -8 25 -5 4 2
15 -2 25 -9 16 -12 16 -14 -7 -29 -15 -10 -27 -12 -31 -6 -3 6 1 10 10 10 9 0
13 5 10 10 -10 17 -55 11 -86 -11 -16 -11 -27 -25 -24 -30 4 -5 -1 -9 -10 -9
-12 0 -15 6 -10 20 4 11 2 20 -4 20 -6 0 -11 -9 -11 -20 0 -27 -32 -26 -56 1
-19 22 -19 22 2 11 12 -6 24 -8 28 -5 13 13 5 31 -15 36 -19 5 -20 8 -7 20 9
9 25 13 41 10 21 -4 27 -1 27 12 0 14 -6 16 -32 11 -18 -3 -34 -10 -38 -14 -3
-5 -14 -12 -24 -16 -19 -7 -19 -6 -2 13 10 11 27 23 37 26 28 9 23 21 -18 42
-20 10 -39 24 -41 32 -3 8 0 11 5 8 6 -4 19 0 29 8 18 14 18 14 -6 15 -15 0
-31 -5 -38 -12 -9 -9 -12 -9 -12 0 0 9 -32 12 -115 12 l-115 0 0 -1600z m1746
1563 c-6 -6 -36 9 -36 18 0 5 9 4 20 -3 10 -7 18 -14 16 -15z m58 2 c-26 -20
-50 -21 -32 -1 7 8 16 12 20 10 4 -2 10 1 13 7 4 5 10 8 13 5 3 -4 -3 -13 -14
-21z m-324 -9 c0 -2 -9 -2 -20 1 -11 3 -20 9 -20 15 0 5 9 4 20 -2 11 -6 20
-12 20 -14z m200 -15 c0 -15 -5 -18 -22 -13 -12 3 -17 7 -10 10 7 2 10 8 6 13
-8 14 -24 11 -24 -4 0 -8 -11 -19 -25 -25 -31 -15 -41 -37 -25 -57 14 -17 10
-28 -5 -17 -6 4 -20 21 -32 38 -20 29 -20 31 -4 27 11 -3 21 2 24 11 4 9 17
16 29 17 21 1 20 2 -7 15 -27 13 -27 14 -5 10 14 -2 34 -1 45 4 26 10 55 -6
55 -29z m-1453 -13 c-3 -7 -5 -2 -5 12 0 14 2 19 5 13 2 -7 2 -19 0 -25z
m1056 8 c4 -10 0 -12 -14 -9 -22 6 -26 23 -5 23 8 0 16 -6 19 -14z m597 -11
c0 -8 -4 -15 -10 -15 -5 0 -7 7 -4 15 4 8 8 15 10 15 2 0 4 -7 4 -15z m325 5
c-3 -5 -10 -10 -16 -10 -5 0 -9 5 -9 10 0 6 7 10 16 10 8 0 12 -4 9 -10z
m-733 -10 c62 -18 50 -25 -43 -26 -92 -1 -113 8 -56 25 43 12 56 13 99 1z
m278 -6 c0 -8 -5 -12 -10 -9 -6 4 -8 11 -5 16 9 14 15 11 15 -7z m524 -9 c-4
-8 -11 -15 -16 -15 -6 0 -5 6 2 15 7 8 14 15 16 15 2 0 1 -7 -2 -15z m-2073
-52 c-8 -15 -10 -15 -11 -2 0 17 10 32 18 25 2 -3 -1 -13 -7 -23z m494 8 c16
-1 6 -81 -10 -81 -17 0 -27 -28 -12 -33 7 -2 -3 -4 -20 -4 -18 0 -33 2 -33 3
0 2 11 24 25 50 18 34 22 50 14 60 -8 9 -6 12 8 9 10 -2 23 -4 28 -4z m245 1
c0 -13 -12 -22 -22 -16 -10 6 -1 24 13 24 5 0 9 -4 9 -8z m445 -2 c-3 -5 -2
-10 4 -10 6 0 14 -12 17 -27 4 -16 18 -43 31 -60 32 -43 17 -42 -27 2 -19 19
-40 35 -47 35 -9 0 -10 6 -2 26 9 26 9 27 -28 21 l-38 -5 30 13 c36 17 69 19
60 5z m335 6 c0 -3 -4 -8 -10 -11 -5 -3 -10 -1 -10 4 0 6 5 11 10 11 6 0 10
-2 10 -4z m570 -31 c7 -8 9 -15 6 -15 -4 0 -14 7 -22 15 -9 8 -11 15 -6 15 5
0 15 -7 22 -15z m-1134 -34 c0 -13 -7 -18 -23 -18 -13 0 -23 3 -23 8 0 5 5 9
11 9 5 0 7 5 4 10 -3 6 2 10 12 10 12 0 19 -7 19 -19z m-526 -1 c0 -13 -12
-19 -26 -13 -8 3 -12 8 -9 12 5 10 35 10 35 1z m2308 -9 c11 -7 11 -9 -1 -14
-16 -6 -27 0 -27 15 0 10 11 10 28 -1z m-1918 -22 c0 -11 -4 -17 -10 -14 -5 3
-10 13 -10 21 0 8 5 14 10 14 6 0 10 -9 10 -21z m-595 1 c-3 -5 3 -10 14 -10
20 0 20 -1 -4 -36 -17 -25 -22 -41 -16 -48 6 -7 6 -17 1 -26 -8 -13 -10 -12
-10 3 0 21 -16 23 -24 2 -3 -8 -1 -15 4 -15 6 0 10 -5 10 -11 0 -6 -5 -7 -12
-2 -7 4 -31 13 -53 18 -32 8 -44 18 -58 47 -14 28 -16 42 -8 55 6 10 11 12 11
6 0 -14 61 -6 71 10 4 5 11 2 16 -8 8 -14 14 -15 29 -7 10 6 15 12 11 12 -12
0 2 20 14 20 6 0 7 -4 4 -10z m460 -10 c8 -13 -5 -13 -25 0 -13 8 -13 10 2 10
9 0 20 -4 23 -10z m-665 -10 c13 -8 13 -10 -2 -10 -9 0 -20 5 -23 10 -8 13 5
13 25 0z m386 -8 c-1 -22 -26 -41 -51 -41 l-20 0 20 15 c11 8 19 21 18 27 -2
7 6 13 16 14 12 1 18 -5 17 -15z m1658 -4 c-3 -4 -12 -8 -20 -8 -8 0 -14 4
-14 8 0 4 9 8 19 8 11 0 17 -4 15 -8z m-605 -45 c20 -14 46 -37 58 -51 20 -22
21 -26 7 -39 -13 -14 -21 -14 -57 -3 -23 8 -46 14 -52 15 -5 1 -14 3 -20 4 -5
1 -3 7 5 14 24 19 24 40 1 27 -11 -5 -27 -10 -37 -10 -14 0 -15 2 -3 16 12 15
11 16 -7 10 -15 -4 -21 -2 -21 9 0 13 8 15 44 9 27 -4 43 -2 43 4 0 6 -6 13
-12 15 -10 4 -9 6 1 6 8 1 30 -11 50 -26z m550 -6 c0 -21 -1 -21 -9 -2 -12 28
-12 37 0 30 6 -3 10 -16 9 -28z m-709 13 c0 -5 -2 -10 -4 -10 -3 0 -8 5 -11
10 -3 6 -1 10 4 10 6 0 11 -4 11 -10z m765 -59 c6 -30 18 -59 29 -66 10 -8 15
-18 12 -24 -4 -6 0 -24 9 -40 21 -41 19 -44 -10 -15 -20 20 -29 23 -39 15 -11
-9 -14 -8 -12 6 0 10 -5 17 -11 16 -7 -2 -13 1 -13 6 0 11 -39 26 -57 23 -18
-4 -16 8 3 22 15 12 10 51 -6 41 -5 -3 -32 0 -60 7 -46 11 -50 13 -34 25 14
10 15 13 3 13 -8 0 -20 -5 -27 -12 -9 -9 -12 -8 -12 5 0 12 8 17 30 17 17 0
30 -4 30 -10 0 -5 8 -9 18 -8 28 4 102 -24 102 -38 0 -7 10 -18 21 -25 20 -10
21 -9 15 17 -4 16 -8 36 -9 44 -2 9 -7 21 -11 29 -6 9 -4 12 5 9 8 -2 19 -28
24 -57z m-2012 12 c-7 -2 -19 -2 -25 0 -7 3 -2 5 12 5 14 0 19 -2 13 -5z
m2221 -10 c21 -11 34 -25 33 -35 -1 -10 -5 -18 -9 -18 -15 0 -8 -29 9 -38 31
-18 -22 -24 -62 -7 -48 19 -48 19 -42 -7 5 -20 5 -21 -7 -6 -6 9 -28 18 -47
21 -30 4 -32 5 -11 12 12 4 22 13 22 20 0 18 31 43 60 47 21 4 22 6 8 12 -10
5 -30 2 -48 -7 -33 -17 -40 -12 -12 9 24 19 65 17 106 -3z m256 -25 c0 -13
-32 -6 -37 9 -3 7 3 9 16 6 12 -3 21 -10 21 -15z m-397 -3 c-3 -9 -8 -14 -10
-11 -3 3 -2 9 2 15 9 16 15 13 8 -4z m337 5 c0 -13 -11 -13 -30 0 -12 8 -11
10 8 10 12 0 22 -4 22 -10z m-2240 -50 c-18 -11 -22 -7 -14 14 5 13 10 14 18
6 8 -8 7 -13 -4 -20z m1360 20 c0 -5 -5 -10 -11 -10 -5 0 -7 5 -4 10 3 6 8 10
11 10 2 0 4 -4 4 -10z m360 -16 c0 -2 -16 -4 -35 -4 -19 0 -35 4 -35 8 0 4 16
6 35 4 19 -2 35 -6 35 -8z m-1332 -19 c20 -14 34 -25 31 -25 -11 0 -69 31 -74
41 -10 15 4 10 43 -16z m902 15 c0 -5 -8 -10 -17 -10 -15 0 -16 2 -3 10 19 12
20 12 20 0z m936 -8 c-10 -2 -22 0 -28 6 -6 6 0 7 19 4 21 -5 23 -7 9 -10z
m-856 -2 c0 -5 -4 -10 -10 -10 -5 0 -10 5 -10 10 0 6 5 10 10 10 6 0 10 -4 10
-10z m-173 -16 c-3 -3 -12 -4 -19 -1 -8 3 -5 6 6 6 11 1 17 -2 13 -5z m-1283
-19 c-7 -16 -24 -21 -24 -6 0 8 7 13 27 20 1 1 0 -6 -3 -14z m1601 -17 c-11
-6 -32 -22 -47 -36 -16 -14 -28 -22 -28 -16 0 17 15 33 45 48 34 18 61 22 30
4z m-1563 -29 c-23 -26 -32 -24 -19 5 6 13 17 22 23 19 9 -3 8 -10 -4 -24z
m2138 21 c13 -8 13 -10 -2 -10 -9 0 -20 5 -23 10 -8 13 5 13 25 0z m-399 -58
c-7 -2 -18 1 -23 6 -8 8 -4 9 13 5 13 -4 18 -8 10 -11z m254 -12 c3 -5 1 -10
-4 -10 -6 0 -11 5 -11 10 0 6 2 10 4 10 3 0 8 -4 11 -10z m302 -22 c3 -10 14
-18 24 -18 14 0 21 -9 25 -30 4 -16 22 -47 40 -69 19 -21 34 -45 34 -51 0 -7
8 -10 20 -7 11 3 17 1 14 -5 -11 -18 -59 -3 -87 29 -18 21 -28 44 -30 69 -2
39 -27 62 -27 25 0 -12 -4 -21 -10 -21 -5 0 -16 -12 -25 -27 l-16 -28 4 27 c4
24 1 27 -18 26 -20 -2 -23 -7 -20 -36 3 -27 1 -31 -11 -22 -7 7 -19 8 -26 4
-10 -5 -11 -4 0 7 17 18 15 30 -3 23 -10 -4 -15 0 -15 11 0 14 -3 15 -15 5
-11 -9 -12 -17 -4 -32 17 -31 4 -32 -16 -1 -10 15 -29 40 -43 56 -21 22 -23
27 -9 27 10 0 17 8 17 18 0 19 18 42 32 42 5 0 2 -11 -7 -23 -16 -25 -11 -87
7 -87 6 0 8 10 5 23 -5 19 -2 22 23 22 21 1 30 -4 30 -15 0 -13 1 -13 10 0 14
22 12 28 -12 36 -22 7 -22 7 -3 16 11 5 31 15 43 22 29 17 63 9 69 -16z m-762
-20 c-7 -18 -35 -20 -35 -2 0 7 3 20 6 29 6 14 9 15 21 3 7 -8 11 -21 8 -30z
m508 18 c24 -18 21 -29 -4 -15 -24 12 -21 3 10 -36 l16 -20 -25 20 c-33 27
-39 36 -33 52 6 16 13 16 36 -1z m-479 -82 c3 -9 -1 -14 -12 -14 -21 0 -42 19
-42 37 0 16 46 -3 54 -23z m383 30 c-3 -3 -12 -4 -19 -1 -8 3 -5 6 6 6 11 1
17 -2 13 -5z m396 -111 c-7 -2 -19 -2 -25 0 -7 3 -2 5 12 5 14 0 19 -2 13 -5z
m-2476 -25 c-3 -8 -6 -5 -6 6 -1 11 2 17 5 13 3 -3 4 -12 1 -19z m2678 12 c3
-5 -3 -10 -14 -10 -12 0 -21 5 -21 10 0 6 6 10 14 10 8 0 18 -4 21 -10z m-993
-11 c-24 -4 -52 -4 -65 1 -16 6 -5 9 43 8 63 0 64 0 22 -9z m-1718 -25 c3 -8
2 -12 -4 -9 -6 3 -10 10 -10 16 0 14 7 11 14 -7z m1026 1 c11 -13 7 -15 -26
-14 -23 1 -30 3 -16 6 12 2 22 9 22 14 0 13 6 11 20 -6z m1578 -33 c2 -7 -2
-10 -12 -6 -9 3 -16 11 -16 16 0 13 23 5 28 -10z m-2579 -32 c7 0 9 -5 6 -10
-9 -15 -45 7 -45 28 1 16 2 16 14 0 7 -10 19 -18 25 -18z m2686 -19 c19 -11
19 -11 -5 -9 -16 2 -26 10 -28 23 -2 12 0 16 5 9 4 -6 17 -16 28 -23z m-65
-11 c8 -5 11 -10 5 -10 -5 0 -17 5 -25 10 -8 5 -10 10 -5 10 6 0 17 -5 25 -10z
m40 -14 c0 -2 3 -11 6 -19 4 -12 0 -14 -15 -10 -30 8 -27 -15 3 -27 20 -7 24
-15 23 -44 -1 -20 -6 -36 -11 -36 -5 0 -1 -10 10 -22 18 -20 18 -21 1 -15 -15
6 -17 3 -12 -12 5 -18 1 -19 -55 -17 -33 2 -60 -1 -60 -6 0 -5 -4 -6 -10 -3
-20 12 -9 25 21 25 28 0 29 1 14 16 -9 9 -15 19 -13 23 25 53 83 151 89 151 5
0 9 -2 9 -4z m-414 -95 c37 -23 90 -88 80 -99 -4 -4 -14 2 -22 13 -28 39 -66
75 -79 75 -7 0 -15 7 -19 15 -7 20 3 19 40 -4z m-901 -70 c4 -13 12 -17 25
-14 11 3 20 9 20 14 0 5 7 6 15 3 8 -4 15 -12 15 -20 0 -13 7 -15 54 -18 11
-1 26 -15 35 -33 9 -18 24 -35 34 -39 9 -3 15 -10 12 -15 -4 -5 1 -9 9 -9 9 0
16 -5 16 -11 0 -5 5 -7 10 -4 18 11 51 -6 61 -32 7 -18 15 -24 33 -21 13 1 31
-4 40 -11 15 -13 19 -13 26 -1 7 12 13 12 34 1 26 -14 96 -8 96 9 0 8 19 14
84 24 16 3 33 11 37 18 6 9 16 5 39 -17 25 -24 38 -29 80 -29 28 0 55 5 61 11
8 8 22 5 49 -9 35 -19 40 -19 68 -5 21 10 29 11 26 3 -3 -7 -1 -31 4 -54 6
-27 6 -44 -1 -51 -7 -7 -3 -16 12 -28 18 -15 25 -35 33 -99 9 -72 13 -83 37
-96 30 -18 51 -14 52 10 0 10 6 1 13 -18 7 -19 23 -51 34 -69 14 -23 18 -39
12 -46 -5 -6 -13 -28 -17 -49 l-8 -37 -43 36 c-34 30 -42 43 -42 71 0 30 -3
34 -25 34 -41 0 -91 25 -184 94 -48 35 -105 73 -126 84 -193 98 -433 55 -597
-105 l-46 -46 -141 1 -141 1 -73 60 c-86 72 -159 106 -264 128 -151 31 -284
-7 -442 -124 -46 -35 -88 -63 -93 -63 -6 0 -8 10 -5 23 4 12 2 39 -2 59 -6 26
-6 36 2 31 6 -4 8 0 4 9 -3 9 1 25 9 36 8 12 19 56 24 98 7 54 16 84 30 99 11
12 20 26 20 31 0 5 8 21 17 34 l18 25 5 -30 c7 -39 42 -46 76 -14 27 26 27 26
14 -20 -11 -39 3 -73 44 -108 14 -13 26 -29 26 -37 0 -13 5 -13 37 1 21 8 49
24 62 34 24 19 24 19 50 -3 14 -13 20 -16 14 -8 -19 20 -16 40 5 40 10 0 28
11 40 25 12 14 29 25 37 25 8 0 15 5 15 10 0 6 5 10 11 10 19 0 39 28 39 54 0
27 14 33 39 17 9 -6 22 -6 31 -1 25 14 60 1 60 -22 0 -17 4 -19 26 -14 25 7
26 5 21 -23 -5 -23 -1 -37 19 -61 14 -16 29 -30 34 -30 4 0 11 25 15 57 9 71
13 83 34 84 11 0 12 2 3 6 -10 4 -10 8 -1 19 10 12 13 12 24 -3 11 -15 13 -15
20 6 5 17 12 21 28 17 11 -3 36 2 54 11 26 12 33 21 33 44 0 19 -5 29 -15 29
-23 0 -18 18 8 23 12 2 25 5 29 6 4 0 9 -8 13 -18z m-55 -50 c0 -12 -20 -25
-27 -18 -7 7 6 27 18 27 5 0 9 -4 9 -9z m856 -44 c12 -27 -1 -67 -23 -67 -7 0
-13 -5 -13 -11 0 -6 -9 -8 -22 -3 -26 8 -39 24 -31 37 3 4 -4 11 -16 14 -28 7
-27 24 2 22 57 -5 89 1 83 16 -9 24 8 17 20 -8z m-1196 -8 c0 -6 -4 -7 -10 -4
-5 3 -10 11 -10 16 0 6 5 7 10 4 6 -3 10 -11 10 -16z m80 -9 c0 -5 -4 -10 -10
-10 -5 0 -10 5 -10 10 0 6 5 10 10 10 6 0 10 -4 10 -10z m1220 -47 c0 -5 -5
-15 -10 -23 -9 -13 -11 -13 -19 0 -5 8 -7 18 -5 22 6 10 34 11 34 1z m170
-349 c0 -8 -4 -12 -10 -9 -5 3 -10 13 -10 21 0 8 5 12 10 9 6 -3 10 -13 10
-21z m145 -124 c3 -5 1 -10 -4 -10 -6 0 -11 5 -11 10 0 6 2 10 4 10 3 0 8 -4
11 -10z m-2271 -6 c26 -10 18 -22 -10 -16 -19 3 -25 1 -20 -7 4 -6 3 -11 -3
-11 -17 0 -24 22 -10 31 17 10 23 11 43 3z m2041 -5 c11 -17 -2 -22 -40 -15
-19 4 -33 11 -30 17 8 12 62 12 70 -2z m-216 -358 c1 11 9 16 25 15 24 -1 24
-1 5 -27 -35 -49 -97 -97 -153 -118 -66 -24 -78 -26 -52 -6 11 8 16 21 13 30
-4 8 -2 15 3 15 6 0 10 7 10 15 0 9 8 19 18 22 9 4 19 9 22 13 3 3 23 10 45
15 22 6 41 16 41 23 3 25 6 27 14 7 7 -16 9 -16 9 -4z m-375 -210 c11 -4 15
-10 10 -13 -5 -4 -20 0 -34 8 -26 14 -9 18 24 5z"/>
<path d="M405 2930 c4 -6 11 -8 16 -5 14 9 11 15 -7 15 -8 0 -12 -5 -9 -10z"/>
<path d="M280 2918 c1 -22 37 -61 49 -54 9 6 8 14 -3 32 -14 20 -14 23 -1 18
8 -4 15 -1 15 5 0 6 -13 11 -30 11 -17 0 -30 -5 -30 -12z"/>
<path d="M355 2860 c-3 -5 1 -10 10 -10 9 0 13 5 10 10 -3 6 -8 10 -10 10 -2
0 -7 -4 -10 -10z"/>
<path d="M2636 2594 c-4 -9 -4 -19 -1 -22 2 -3 7 3 11 12 4 9 4 19 1 22 -2 3
-7 -3 -11 -12z"/>
<path d="M2595 2550 c-3 -5 -1 -10 4 -10 6 0 11 5 11 10 0 6 -2 10 -4 10 -3 0
-8 -4 -11 -10z"/>
<path d="M1715 2050 c3 -5 10 -10 16 -10 5 0 9 5 9 10 0 6 -7 10 -16 10 -8 0
-12 -4 -9 -10z"/>
<path d="M1528 1553 c6 -2 18 -2 25 0 6 3 1 5 -13 5 -14 0 -19 -2 -12 -5z"/>
<path d="M2270 3196 c0 -2 7 -6 15 -10 8 -3 15 -1 15 4 0 6 -7 10 -15 10 -8 0
-15 -2 -15 -4z"/>
<path d="M750 3180 c-18 -11 -13 -16 28 -23 33 -7 40 1 20 21 -14 14 -28 15
-48 2z"/>
<path d="M820 3171 c5 -11 15 -23 20 -26 14 -9 12 19 -2 33 -19 19 -30 14 -18
-7z"/>
<path d="M290 3170 c-10 -6 -12 -12 -4 -20 7 -7 17 -5 34 10 21 18 21 20 4 20
-10 0 -26 -5 -34 -10z"/>
<path d="M561 3173 c4 -27 -4 -43 -26 -49 -14 -3 -22 -10 -19 -15 10 -16 43
-9 71 15 28 24 28 25 8 40 -22 17 -36 20 -34 9z"/>
<path d="M820 3130 c0 -7 24 -20 36 -20 13 0 1 19 -16 23 -11 3 -20 2 -20 -3z"/>
<path d="M2419 3114 l-24 -26 24 4 c17 2 25 10 26 26 1 12 1 22 0 22 -1 0 -12
-12 -26 -26z"/>
<path d="M1113 3109 c-29 -11 -30 -23 -1 -16 12 4 27 2 33 -3 6 -5 17 -5 25 0
12 7 12 12 2 22 -10 10 -14 10 -21 -1 -5 -7 -10 -9 -12 -3 -3 6 -13 6 -26 1z"/>
<path d="M427 3099 c7 -7 15 -10 18 -7 3 3 -2 9 -12 12 -14 6 -15 5 -6 -5z"/>
<path d="M2643 3043 c-17 -6 -17 -23 0 -23 8 0 14 7 14 15 0 8 -1 15 -1 14 -1
0 -7 -3 -13 -6z"/>
<path d="M2070 2970 c0 -5 7 -10 16 -10 8 0 12 5 9 10 -3 6 -10 10 -16 10 -5
0 -9 -4 -9 -10z"/>
<path d="M2760 2841 c-7 -14 -7 -21 0 -21 5 0 10 8 10 17 0 15 2 14 15 -3 15
-19 16 -19 13 0 -4 27 -25 31 -38 7z"/>
<path d="M2731 2696 c2 -2 15 -9 29 -15 24 -11 24 -11 6 3 -16 13 -49 24 -35
12z"/>
<path d="M2827 1077 c-10 -15 -12 -29 -6 -38 5 -8 21 -50 35 -94 35 -106 48
-118 41 -37 -4 46 -11 70 -27 87 -21 22 -30 72 -16 94 14 22 -12 11 -27 -12z"/>
<path d="M2750 919 c0 -6 9 -22 20 -36 22 -28 26 -19 10 21 -9 26 -30 36 -30
15z"/>
<path d="M422 900 c-6 -11 -12 -36 -12 -56 l0 -37 25 47 c23 43 25 66 7 66 -4
0 -13 -9 -20 -20z"/>
<path d="M1319 658 c-23 -15 -50 -28 -61 -28 -30 0 -21 -21 35 -75 54 -53 127
-95 174 -100 14 -1 31 -9 37 -16 19 -24 56 -21 66 5 5 13 14 27 20 31 7 4 19
23 27 42 8 19 23 37 33 40 11 3 17 10 13 16 -4 7 0 8 11 4 10 -4 20 -7 22 -7
3 0 2 -5 -2 -11 -4 -8 1 -9 17 -4 36 11 49 25 49 51 0 34 -33 48 -102 40 -50
-5 -61 -3 -78 14 -20 20 -32 22 -162 25 -47 2 -63 -3 -99 -27z"/>
<path d="M1430 321 c0 -5 11 -8 24 -7 13 0 22 4 19 9 -6 10 -43 9 -43 -2z"/>
<path d="M1278 281 c-61 -24 -107 -37 -123 -33 -39 7 -93 -48 -75 -77 11 -18
142 -24 195 -9 74 21 65 20 210 15 55 -2 133 1 173 7 60 8 90 7 160 -7 162
-31 169 -31 175 -7 8 31 -28 60 -74 60 -21 0 -66 13 -101 30 -64 31 -94 37
-100 21 -3 -7 -106 1 -173 14 -11 2 -22 4 -25 4 -3 1 2 6 10 11 12 8 9 10 -13
10 -16 0 -26 -4 -23 -9 12 -18 -99 -47 -136 -35 -21 6 -20 8 13 25 58 31 9 20
-93 -20z"/>
<path d="M1320 122 c0 -6 14 -16 30 -24 36 -16 34 -31 -6 -38 -19 -4 -25 -8
-16 -13 7 -5 10 -13 7 -18 -3 -5 1 -6 9 -3 11 4 16 0 16 -10 0 -14 20 -16 160
-16 152 0 160 1 171 21 8 15 8 24 0 32 -8 8 -6 16 6 29 9 10 14 20 11 23 -3 3
-41 5 -84 5 -43 0 -86 0 -94 0 -38 0 -158 10 -182 16 -16 3 -28 1 -28 -4z"/>
</g>
</svg>
